# xmcd
#
# Track frame offsets: 
#        150
#        13721
#        33545
#        50533
#        71644
#        95437
#        107512
#        130764
#        153008
#        169478
#
# Disc length: 2350 seconds
#
# Revision: 0
# Processed by: cddbd v1.5.2PL0 Copyright (c) Steve Scherf et al.
# Submitted via: ExactAudioCopy v0.95b4
#
DISCID=7d092c0a
DTITLE=No Snakes In Heaven - Fire Blue
DYEAR=2004
DGENRE=Country
TTITLE0=Fire Blue
TTITLE1=Shame Pain Love
TTITLE2=Alice
TTITLE3=To A Friend
TTITLE4=Wishing Well
TTITLE5=I Come Like A Rainbow
TTITLE6=Return To Happiness
TTITLE7=The Color Of A Shooting Star
TTITLE8=No Road
TTITLE9=Adelaide City
EXTD=
EXTT0=
EXTT1=
EXTT2=
EXTT3=
EXTT4=
EXTT5=
EXTT6=
EXTT7=
EXTT8=
EXTT9=
PLAYORDER=
